<svg viewBox="0 0 578 497" fill="none" xmlns="http://www.w3.org/2000/svg" xmlns:xlink="http://www.w3.org/1999/xlink"> <g filter="url(#filter0_di_674_36891)"> <g clip-path="url(#clip0_674_36891)"> <rect x="1" width="576" height="495" rx="17" fill="#050417" /> <g filter="url(#filter1_d_674_36891)"> <path d="M33 12H21C16.5817 12 13 15.5817 13 20V32" stroke="#3E5FFF" stroke-width="2" /> <path d="M33 483H21C16.5817 483 13 479.418 13 475V463" stroke="#3E5FFF" stroke-width="2" /> </g> <g filter="url(#filter2_d_674_36891)"> <path d="M545 12H557C561.418 12 565 15.5817 565 20V32" stroke="#3E5FFF" stroke-width="2" /> <path d="M545 483H557C561.418 483 565 479.418 565 475V463" stroke="#3E5FFF" stroke-width="2" /> </g> <rect opacity="0.04" x="-125" width="828" height="496" fill="url(#pattern0_674_36891)" /> <mask id="mask0_674_36891" style="mask-type: alpha" maskUnits="userSpaceOnUse" x="138" y="164" width="302" height="122"> <rect width="302" height="122" transform="translate(138 164)" fill="white" /> </mask> <g mask="url(#mask0_674_36891)"> <path d="M144.283 170.318C147.753 170.319 150.565 173.126 150.565 176.59C150.565 178.944 149.266 180.995 147.344 182.067C146.293 182.653 145.48 183.757 145.48 184.96C145.48 185.352 145.48 185.745 145.478 186.138C145.455 190.454 145.317 194.771 145.23 199.087C145.162 202.5 144.98 205.913 144.98 209.326L144.98 241.646C144.98 247.041 145.48 252.435 145.48 257.829L145.48 267.269C145.48 268.239 145.455 269.21 145.406 270.181C145.399 270.322 145.391 270.464 145.383 270.606C145.289 272.228 146.499 273.637 147.839 274.557C149.486 275.688 150.565 277.581 150.565 279.728C150.565 283.191 147.753 285.999 144.283 285.999C140.813 285.999 138 283.191 138 279.728C138 277.507 139.156 275.557 140.9 274.443C142.331 273.529 143.657 272.075 143.565 270.38C143.562 270.314 143.558 270.247 143.555 270.181C143.506 269.21 143.48 268.239 143.48 267.269L143.48 257.829C143.48 252.435 143.98 247.041 143.98 241.646L143.98 209.326C143.98 205.913 143.799 202.5 143.73 199.087C143.644 194.771 143.506 190.454 143.483 186.138C143.481 185.745 143.48 185.352 143.48 184.96C143.48 183.805 142.657 182.758 141.612 182.268C139.478 181.266 138 179.1 138 176.59C138 173.126 140.813 170.318 144.283 170.318Z" fill="#3E5FFF" /> <path d="M163.829 175.895C166.528 175.895 168.716 178.078 168.716 180.772C168.716 182.831 167.438 184.591 165.631 185.307C165.283 185.445 165.026 185.764 165.024 186.139C165.002 190.455 164.864 194.772 164.777 199.088C164.709 202.501 164.527 205.914 164.527 209.327L164.527 241.647C164.527 247.042 165.027 252.436 165.027 257.83L165.027 267.27C165.027 267.674 165.321 268.015 165.712 268.114C169.043 268.952 171.509 271.962 171.509 275.547C171.509 279.78 168.07 283.213 163.829 283.213C159.588 283.213 156.15 279.78 156.15 275.547C156.151 271.806 158.835 268.691 162.386 268.016C162.749 267.947 163.027 267.639 163.027 267.27L163.027 257.83C163.027 252.436 163.527 247.042 163.527 241.647L163.527 209.327C163.527 205.914 163.346 202.501 163.277 199.088C163.191 194.772 163.053 190.455 163.03 186.139C163.029 185.819 162.795 185.55 162.487 185.463C160.441 184.881 158.942 183.002 158.942 180.772C158.942 178.078 161.13 175.895 163.829 175.895Z" fill="#3E5FFF" /> <path d="M178.763 183.03C181.461 182.937 183.722 185.044 183.815 187.737C183.863 189.145 183.308 190.434 182.382 191.357C181.453 192.282 180.556 193.407 180.579 194.718C180.627 197.441 180.629 200.167 180.662 202.891C180.696 205.695 180.617 208.503 180.719 211.304L181.685 237.836C181.846 242.264 182.508 246.674 182.669 251.102L182.727 252.701C182.785 254.297 184.124 255.513 185.616 256.083C188.585 257.218 190.738 260.04 190.854 263.411C191.008 267.905 187.484 271.673 182.983 271.828C178.481 271.982 174.705 268.464 174.551 263.97C174.445 260.888 176.069 258.147 178.553 256.679C179.788 255.949 180.799 254.728 180.747 253.294L180.671 251.174C180.509 246.746 180.847 242.3 180.686 237.872L179.719 211.341C179.617 208.539 179.334 205.744 179.163 202.946C179.011 200.436 178.832 197.927 178.688 195.417C178.6 193.904 177.319 192.751 176.086 191.869C174.896 191.018 174.101 189.645 174.047 188.071C173.955 185.379 176.066 183.122 178.763 183.03Z" fill="#3E5FFF" /> <path d="M192.312 194.357C194.453 194.134 196.37 195.688 196.593 197.825C196.676 198.625 196.51 199.393 196.157 200.053C195.642 201.016 195.087 202.049 195.211 203.134C195.368 204.516 195.515 205.9 195.676 207.282C195.914 209.33 196.04 211.395 196.346 213.432L199.246 232.728C199.454 234.11 199.752 235.478 200.063 236.844C200.381 238.242 201.665 239.175 203.053 239.535C206.576 240.448 209.331 243.46 209.729 247.287C210.242 252.212 206.657 256.62 201.723 257.132C196.789 257.644 192.374 254.065 191.861 249.14C191.478 245.464 193.379 242.076 196.419 240.382C197.732 239.65 198.783 238.337 198.67 236.838C198.57 235.512 198.454 234.188 198.257 232.876L195.357 213.58C195.051 211.543 194.566 209.532 194.192 207.504C193.862 205.717 193.509 203.934 193.186 202.146C193.18 202.114 193.151 202.094 193.118 202.097C190.977 202.319 189.061 200.767 188.839 198.629C188.616 196.492 190.171 194.579 192.312 194.357Z" fill="#3E5FFF" /> <path d="M203.209 203.066C204.901 202.308 206.888 203.063 207.647 204.752C208.111 205.784 208.009 206.924 207.475 207.828C207.129 208.416 206.816 209.116 207.099 209.737L209.515 215.043C209.652 215.343 209.841 215.62 210.047 215.889C210.349 216.284 210.901 216.381 211.355 216.177C216.445 213.898 222.423 216.169 224.707 221.25C226.99 226.331 224.715 232.298 219.625 234.578C214.535 236.858 208.557 234.586 206.273 229.505C204.63 225.848 205.348 221.733 207.778 218.863C208.518 217.989 209.09 216.811 208.714 215.73C208.682 215.637 208.646 215.546 208.605 215.457L206.188 210.151C205.943 209.613 205.287 209.456 204.696 209.476C203.374 209.52 202.095 208.777 201.52 207.497C200.761 205.808 201.517 203.824 203.209 203.066Z" fill="#3E5FFF" /> <path d="M226.471 247.203C228.296 247.533 230.044 246.324 230.374 244.502C230.503 243.794 230.398 243.097 230.115 242.491C229.564 241.312 228.781 240.069 228.966 238.78C229.028 238.35 229.09 237.92 229.157 237.491C229.331 236.364 229.395 235.213 229.637 234.1L231.923 223.565C232.305 221.807 233.175 220.154 233.557 218.396C233.756 217.481 234.602 216.87 235.535 216.785C239.924 216.386 243.686 213.116 244.51 208.576C245.499 203.121 241.871 197.898 236.407 196.911C230.942 195.923 225.711 199.544 224.721 204.999C223.882 209.627 226.366 214.086 230.474 215.935C231.267 216.291 231.786 217.124 231.602 217.973C231.22 219.731 231.328 221.595 230.946 223.353L228.659 233.89C228.418 235.002 227.999 236.076 227.691 237.174C227.56 237.638 227.424 238.102 227.289 238.565C226.938 239.767 225.788 240.565 224.848 241.392C224.3 241.873 223.906 242.535 223.766 243.307C223.435 245.129 224.646 246.873 226.471 247.203Z" fill="#3E5FFF" /> <path d="M239.037 255.564C240.862 255.894 242.61 254.685 242.94 252.863C243.209 251.382 242.459 249.954 241.189 249.293C241.175 249.286 241.169 249.271 241.173 249.257C241.222 249.023 241.271 248.789 241.318 248.555C241.843 245.979 242.255 243.379 242.717 240.791C243.083 238.744 243.337 236.673 243.769 234.641L247.863 215.39C248.546 212.177 249.719 209.068 250.402 205.855L251.598 200.233C251.651 199.984 251.88 199.813 252.134 199.824C256.37 200.006 260.196 197.045 260.973 192.763C261.821 188.089 258.712 183.612 254.029 182.766C249.346 181.919 244.862 185.023 244.014 189.698C243.269 193.802 245.576 197.754 249.319 199.229C249.555 199.322 249.694 199.571 249.641 199.818L248.446 205.44C247.763 208.653 247.569 211.971 246.885 215.183L242.791 234.434C242.359 236.466 241.749 238.461 241.25 240.48C240.619 243.033 239.936 245.576 239.368 248.142C239.316 248.375 239.266 248.608 239.216 248.842C239.203 248.901 239.156 248.947 239.096 248.956C237.732 249.178 236.592 250.233 236.331 251.668C236.001 253.49 237.212 255.234 239.037 255.564Z" fill="#3E5FFF" /> <path d="M251.476 267.423C253.691 267.823 255.813 266.355 256.214 264.143C256.437 262.911 256.079 261.707 255.335 260.814C254.759 260.123 254.392 259.189 254.581 258.309C254.651 257.981 254.72 257.652 254.789 257.324C255.541 253.712 256.181 250.075 256.871 246.449C257.416 243.582 257.851 240.691 258.464 237.838L264.262 210.823C265.23 206.314 266.687 201.91 267.655 197.402L269.348 189.512C269.596 188.36 270.696 187.6 271.867 187.472C275.26 187.103 278.149 184.552 278.788 181.029C279.566 176.738 276.713 172.63 272.415 171.853C268.116 171.076 264 173.924 263.222 178.215C262.692 181.138 263.847 183.975 265.996 185.733C266.998 186.553 267.664 187.827 267.393 189.093L265.699 196.983C264.731 201.492 264.253 206.105 263.285 210.614L257.485 237.629C256.873 240.482 256.084 243.296 255.404 246.135C254.546 249.724 253.635 253.303 252.839 256.907C252.766 257.234 252.695 257.563 252.625 257.891C252.454 258.687 251.752 259.292 250.975 259.538C249.58 259.978 248.47 261.155 248.191 262.692C247.789 264.904 249.26 267.022 251.476 267.423Z" fill="#3E5FFF" /> <path d="M266.929 275.026C269.577 275.505 272.114 273.749 272.593 271.105C272.889 269.475 272.333 267.888 271.243 266.799C270.411 265.967 269.845 264.713 270.135 263.573C270.229 263.204 270.322 262.835 270.414 262.466C271.425 258.401 272.323 254.308 273.272 250.228C274.022 247.002 274.662 243.748 275.479 240.539L283.21 210.148C284.501 205.075 286.276 200.126 287.567 195.054L289.825 186.178C290.057 185.265 290.265 184.346 290.449 183.421C290.656 182.386 291.619 181.69 292.656 181.495C295.218 181.013 297.338 179.005 297.83 176.292C298.468 172.778 296.131 169.414 292.611 168.778C289.091 168.142 285.72 170.474 285.083 173.988C284.628 176.495 285.688 178.926 287.612 180.344C288.436 180.951 288.959 181.988 288.655 182.966C288.375 183.867 288.119 184.774 287.886 185.686L285.628 194.562C284.338 199.634 283.532 204.83 282.241 209.902L274.51 240.294C273.693 243.503 272.701 246.668 271.818 249.86C270.702 253.897 269.535 257.923 268.481 261.976C268.385 262.344 268.29 262.713 268.196 263.082C267.877 264.339 266.771 265.311 265.612 265.892C264.29 266.554 263.285 267.808 263.001 269.373C262.522 272.016 264.281 274.548 266.929 275.026Z" fill="#3E5FFF" /> <path d="M433.717 279.68C430.247 279.679 427.435 276.872 427.435 273.408C427.435 271.054 428.734 269.003 430.657 267.93C431.707 267.345 432.52 266.242 432.52 265.039C432.52 264.647 432.52 264.254 432.522 263.861C432.545 259.545 432.683 255.228 432.77 250.912C432.838 247.499 433.02 244.086 433.02 240.673L433.02 208.353C433.02 202.958 432.52 197.564 432.52 192.17V182.73C432.52 181.76 432.545 180.789 432.594 179.818C432.601 179.676 432.609 179.534 432.617 179.393C432.712 177.77 431.501 176.361 430.161 175.441C428.514 174.311 427.435 172.417 427.435 170.271C427.435 166.807 430.247 163.999 433.717 163.999C437.187 163.999 440 166.807 440 170.271C440 172.491 438.844 174.442 437.1 175.556C435.669 176.47 434.343 177.924 434.435 179.619C434.438 179.685 434.442 179.752 434.445 179.818C434.494 180.789 434.52 181.76 434.52 182.73V192.17C434.519 197.564 434.02 202.958 434.02 208.353L434.02 240.673C434.02 244.086 434.201 247.499 434.27 250.912C434.356 255.228 434.494 259.545 434.517 263.861C434.519 264.254 434.52 264.647 434.52 265.039C434.519 266.193 435.341 267.24 436.386 267.729C438.521 268.731 440 270.897 440 273.408C440 276.872 437.187 279.68 433.717 279.68Z" fill="#3E5FFF" /> <path d="M414.171 274.105C411.472 274.105 409.284 271.922 409.284 269.228C409.284 267.168 410.562 265.408 412.37 264.693C412.717 264.555 412.974 264.236 412.976 263.862C412.998 259.546 413.136 255.229 413.223 250.913C413.291 247.5 413.473 244.087 413.473 240.674L413.473 208.354C413.473 202.959 412.973 197.565 412.973 192.171L412.973 182.731C412.973 182.327 412.679 181.985 412.287 181.886C408.956 181.048 406.491 178.038 406.491 174.453C406.491 170.22 409.93 166.787 414.171 166.787C418.412 166.787 421.85 170.22 421.85 174.453C421.85 178.194 419.166 181.309 415.615 181.984C415.252 182.053 414.973 182.361 414.973 182.731V192.171C414.973 197.565 414.473 202.959 414.473 208.354L414.473 240.674C414.473 244.087 414.654 247.5 414.723 250.913C414.809 255.229 414.947 259.546 414.97 263.862C414.971 264.182 415.205 264.451 415.513 264.538C417.559 265.12 419.058 266.998 419.058 269.228C419.058 271.922 416.87 274.105 414.171 274.105Z" fill="#3E5FFF" /> <path d="M399.238 266.97C396.54 267.063 394.279 264.955 394.186 262.262C394.138 260.854 394.692 259.565 395.619 258.642C396.548 257.717 397.445 256.592 397.422 255.281C397.374 252.557 397.371 249.832 397.338 247.108C397.304 244.304 397.383 241.496 397.281 238.695L396.315 212.163C396.154 207.735 395.493 203.325 395.332 198.897L395.274 197.299C395.216 195.703 393.877 194.487 392.385 193.917C389.416 192.782 387.262 189.959 387.146 186.588C386.992 182.094 390.516 178.326 395.018 178.171C399.52 178.017 403.295 181.535 403.45 186.029C403.556 189.111 401.932 191.852 399.448 193.32C398.212 194.05 397.201 195.271 397.253 196.706L397.33 198.825C397.492 203.253 397.153 207.699 397.314 212.127L398.281 238.658C398.383 241.46 398.666 244.255 398.837 247.054C398.989 249.563 399.168 252.072 399.313 254.582C399.401 256.095 400.682 257.248 401.915 258.13C403.105 258.981 403.9 260.354 403.954 261.928C404.046 264.62 401.935 266.878 399.238 266.97Z" fill="#3E5FFF" /> <path d="M385.687 255.644C383.546 255.865 381.63 254.313 381.407 252.176C381.324 251.375 381.49 250.607 381.843 249.946C382.358 248.983 382.913 247.95 382.789 246.865C382.632 245.483 382.485 244.099 382.324 242.718C382.086 240.67 381.959 238.605 381.653 236.568L378.754 217.272C378.546 215.89 378.248 214.522 377.937 213.156C377.619 211.758 376.335 210.825 374.947 210.465C371.424 209.552 368.669 206.54 368.271 202.713C367.758 197.788 371.343 193.38 376.277 192.868C381.211 192.356 385.626 195.935 386.139 200.86C386.522 204.537 384.621 207.924 381.581 209.618C380.267 210.35 379.216 211.663 379.33 213.162C379.43 214.488 379.546 215.812 379.743 217.124L382.642 236.42C382.948 238.457 383.434 240.468 383.808 242.496C384.137 244.283 384.49 246.066 384.813 247.853C384.819 247.886 384.849 247.906 384.882 247.903C387.023 247.681 388.939 249.233 389.161 251.371C389.384 253.508 387.828 255.421 385.687 255.644Z" fill="#3E5FFF" /> <path d="M374.791 246.934C373.099 247.692 371.111 246.937 370.352 245.248C369.888 244.217 369.99 243.077 370.524 242.173C370.871 241.585 371.183 240.885 370.9 240.263L368.485 234.957C368.348 234.657 368.159 234.38 367.953 234.111C367.651 233.716 367.099 233.619 366.645 233.823C361.555 236.102 355.577 233.832 353.294 228.751C351.01 223.67 353.285 217.702 358.375 215.423C363.465 213.143 369.443 215.414 371.727 220.495C373.37 224.152 372.652 228.268 370.222 231.138C369.483 232.012 368.911 233.189 369.286 234.271C369.319 234.363 369.354 234.454 369.395 234.543L371.811 239.85C372.056 240.387 372.713 240.544 373.304 240.525C374.626 240.481 375.905 241.224 376.48 242.503C377.239 244.192 376.483 246.176 374.791 246.934Z" fill="#3E5FFF" /> <path d="M351.529 202.797C349.704 202.467 347.956 203.676 347.626 205.498C347.497 206.206 347.602 206.903 347.885 207.509C348.436 208.688 349.219 209.931 349.034 211.22C348.972 211.65 348.91 212.08 348.843 212.509C348.669 213.636 348.605 214.787 348.363 215.9L346.077 226.435C345.695 228.193 344.825 229.847 344.443 231.605C344.244 232.52 343.398 233.131 342.465 233.216C338.076 233.615 334.313 236.885 333.49 241.425C332.501 246.88 336.129 252.103 341.593 253.09C347.057 254.078 352.289 250.456 353.279 245.001C354.118 240.373 351.634 235.914 347.526 234.065C346.733 233.709 346.214 232.876 346.398 232.027C346.78 230.269 346.672 228.405 347.054 226.647L349.34 216.111C349.582 214.999 350.001 213.924 350.309 212.826C350.44 212.361 350.576 211.898 350.711 211.434C351.063 210.233 352.213 209.435 353.153 208.608C353.7 208.127 354.094 207.465 354.234 206.693C354.565 204.871 353.354 203.127 351.529 202.797Z" fill="#3E5FFF" /> <path d="M338.963 194.436C337.138 194.106 335.39 195.315 335.06 197.137C334.791 198.618 335.541 200.046 336.811 200.707C336.825 200.714 336.831 200.729 336.827 200.743C336.778 200.977 336.729 201.211 336.682 201.445C336.157 204.021 335.745 206.621 335.283 209.21C334.917 211.257 334.663 213.327 334.231 215.359L330.137 234.61C329.454 237.823 328.281 240.932 327.598 244.145L326.402 249.767C326.349 250.016 326.12 250.187 325.866 250.176C321.63 249.994 317.803 252.956 317.027 257.238C316.179 261.912 319.288 266.388 323.971 267.234C328.654 268.081 333.138 264.977 333.986 260.302C334.731 256.198 332.424 252.248 328.681 250.772C328.445 250.679 328.306 250.43 328.359 250.182L329.554 244.56C330.237 241.347 330.431 238.029 331.115 234.817L335.208 215.567C335.641 213.534 336.251 211.539 336.75 209.52C337.381 206.968 338.064 204.425 338.632 201.859C338.684 201.626 338.734 201.392 338.784 201.158C338.797 201.099 338.844 201.053 338.904 201.044C340.268 200.822 341.408 199.768 341.669 198.332C341.999 196.51 340.788 194.766 338.963 194.436Z" fill="#3E5FFF" /> <path d="M326.524 182.577C324.309 182.177 322.188 183.645 321.786 185.857C321.563 187.089 321.921 188.293 322.665 189.186C323.241 189.877 323.608 190.811 323.419 191.691C323.349 192.019 323.28 192.348 323.211 192.676C322.459 196.288 321.819 199.925 321.129 203.551C320.584 206.418 320.149 209.309 319.536 212.162L313.738 239.177C312.77 243.686 311.313 248.091 310.345 252.599L308.652 260.488C308.404 261.64 307.304 262.4 306.133 262.528C302.74 262.897 299.851 265.448 299.212 268.971C298.434 273.262 301.287 277.37 305.585 278.147C309.884 278.924 314 276.076 314.778 271.785C315.308 268.862 314.153 266.025 312.004 264.267C311.002 263.447 310.336 262.173 310.607 260.907L312.301 253.017C313.269 248.508 313.747 243.895 314.715 239.386L320.515 212.371C321.127 209.518 321.916 206.704 322.596 203.865C323.454 200.276 324.365 196.697 325.161 193.093C325.234 192.766 325.305 192.438 325.375 192.11C325.546 191.313 326.249 190.708 327.026 190.462C328.421 190.022 329.531 188.845 329.809 187.308C330.211 185.096 328.74 182.978 326.524 182.577Z" fill="#3E5FFF" /> <path d="M311.071 174.974C308.423 174.495 305.886 176.251 305.407 178.895C305.111 180.525 305.667 182.112 306.757 183.201C307.589 184.033 308.155 185.287 307.865 186.427C307.771 186.796 307.678 187.165 307.586 187.534C306.575 191.599 305.677 195.692 304.728 199.772C303.978 202.998 303.338 206.252 302.521 209.461L294.789 239.852C293.498 244.924 291.723 249.875 290.433 254.947L288.175 263.823C287.943 264.736 287.735 265.655 287.551 266.58C287.344 267.615 286.382 268.31 285.345 268.505C282.783 268.986 280.662 270.995 280.17 273.708C279.532 277.222 281.869 280.587 285.389 281.223C288.909 281.859 292.28 279.526 292.917 276.012C293.372 273.504 292.311 271.073 290.387 269.655C289.563 269.048 289.041 268.012 289.345 267.035C289.625 266.134 289.881 265.227 290.114 264.314L292.372 255.438C293.662 250.366 294.468 245.17 295.759 240.098L303.49 209.707C304.307 206.498 305.299 203.333 306.182 200.14C307.298 196.103 308.465 192.077 309.519 188.024C309.615 187.656 309.71 187.287 309.804 186.918C310.123 185.662 311.229 184.69 312.387 184.11C313.71 183.447 314.715 182.194 314.999 180.628C315.478 177.984 313.72 175.452 311.071 174.974Z" fill="#3E5FFF" /> </g> <g filter="url(#filter3_f_674_36891)"> <mask id="mask1_674_36891" style="mask-type: alpha" maskUnits="userSpaceOnUse" x="138" y="164" width="302" height="122"> <rect width="302" height="122" transform="translate(138 164)" fill="white" /> </mask> <g mask="url(#mask1_674_36891)"> <path d="M144.283 170.318C147.753 170.319 150.565 173.126 150.565 176.59C150.565 178.944 149.266 180.995 147.344 182.067C146.293 182.653 145.48 183.757 145.48 184.96C145.48 185.352 145.48 185.745 145.478 186.138C145.455 190.454 145.317 194.771 145.23 199.087C145.162 202.5 144.98 205.913 144.98 209.326L144.98 241.646C144.98 247.041 145.48 252.435 145.48 257.829L145.48 267.269C145.48 268.239 145.455 269.21 145.406 270.181C145.399 270.322 145.391 270.464 145.383 270.606C145.289 272.228 146.499 273.637 147.839 274.557C149.486 275.688 150.565 277.581 150.565 279.728C150.565 283.191 147.753 285.999 144.283 285.999C140.813 285.999 138 283.191 138 279.728C138 277.507 139.156 275.557 140.9 274.443C142.331 273.529 143.657 272.075 143.565 270.38C143.562 270.314 143.558 270.247 143.555 270.181C143.506 269.21 143.48 268.239 143.48 267.269L143.48 257.829C143.48 252.435 143.98 247.041 143.98 241.646L143.98 209.326C143.98 205.913 143.799 202.5 143.73 199.087C143.644 194.771 143.506 190.454 143.483 186.138C143.481 185.745 143.48 185.352 143.48 184.96C143.48 183.805 142.657 182.758 141.612 182.268C139.478 181.266 138 179.1 138 176.59C138 173.126 140.813 170.318 144.283 170.318Z" fill="#3E5FFF" /> <path d="M163.829 175.895C166.528 175.895 168.716 178.078 168.716 180.772C168.716 182.831 167.438 184.591 165.631 185.307C165.283 185.445 165.026 185.764 165.024 186.139C165.002 190.455 164.864 194.772 164.777 199.088C164.709 202.501 164.527 205.914 164.527 209.327L164.527 241.647C164.527 247.042 165.027 252.436 165.027 257.83L165.027 267.27C165.027 267.674 165.321 268.015 165.712 268.114C169.043 268.952 171.509 271.962 171.509 275.547C171.509 279.78 168.07 283.213 163.829 283.213C159.588 283.213 156.15 279.78 156.15 275.547C156.151 271.806 158.835 268.691 162.386 268.016C162.749 267.947 163.027 267.639 163.027 267.27L163.027 257.83C163.027 252.436 163.527 247.042 163.527 241.647L163.527 209.327C163.527 205.914 163.346 202.501 163.277 199.088C163.191 194.772 163.053 190.455 163.03 186.139C163.029 185.819 162.795 185.55 162.487 185.463C160.441 184.881 158.942 183.002 158.942 180.772C158.942 178.078 161.13 175.895 163.829 175.895Z" fill="#3E5FFF" /> <path d="M178.763 183.03C181.461 182.937 183.722 185.044 183.815 187.737C183.863 189.145 183.308 190.434 182.382 191.357C181.453 192.282 180.556 193.407 180.579 194.718C180.627 197.441 180.629 200.167 180.662 202.891C180.696 205.695 180.617 208.503 180.719 211.304L181.685 237.836C181.846 242.264 182.508 246.674 182.669 251.102L182.727 252.701C182.785 254.297 184.124 255.513 185.616 256.083C188.585 257.218 190.738 260.04 190.854 263.411C191.008 267.905 187.484 271.673 182.983 271.828C178.481 271.982 174.705 268.464 174.551 263.97C174.445 260.888 176.069 258.147 178.553 256.679C179.788 255.949 180.799 254.728 180.747 253.294L180.671 251.174C180.509 246.746 180.847 242.3 180.686 237.872L179.719 211.341C179.617 208.539 179.334 205.744 179.163 202.946C179.011 200.436 178.832 197.927 178.688 195.417C178.6 193.904 177.319 192.751 176.086 191.869C174.896 191.018 174.101 189.645 174.047 188.071C173.955 185.379 176.066 183.122 178.763 183.03Z" fill="#3E5FFF" /> <path d="M192.312 194.357C194.453 194.134 196.37 195.688 196.593 197.825C196.676 198.625 196.51 199.393 196.157 200.053C195.642 201.016 195.087 202.049 195.211 203.134C195.368 204.516 195.515 205.9 195.676 207.282C195.914 209.33 196.04 211.395 196.346 213.432L199.246 232.728C199.454 234.11 199.752 235.478 200.063 236.844C200.381 238.242 201.665 239.175 203.053 239.535C206.576 240.448 209.331 243.46 209.729 247.287C210.242 252.212 206.657 256.62 201.723 257.132C196.789 257.644 192.374 254.065 191.861 249.14C191.478 245.464 193.379 242.076 196.419 240.382C197.732 239.65 198.783 238.337 198.67 236.838C198.57 235.512 198.454 234.188 198.257 232.876L195.357 213.58C195.051 211.543 194.566 209.532 194.192 207.504C193.862 205.717 193.509 203.934 193.186 202.146C193.18 202.114 193.151 202.094 193.118 202.097C190.977 202.319 189.061 200.767 188.839 198.629C188.616 196.492 190.171 194.579 192.312 194.357Z" fill="#3E5FFF" /> <path d="M203.209 203.066C204.901 202.308 206.888 203.063 207.647 204.752C208.111 205.784 208.009 206.924 207.475 207.828C207.129 208.416 206.816 209.116 207.099 209.737L209.515 215.043C209.652 215.343 209.841 215.62 210.047 215.889C210.349 216.284 210.901 216.381 211.355 216.177C216.445 213.898 222.423 216.169 224.707 221.25C226.99 226.331 224.715 232.298 219.625 234.578C214.535 236.858 208.557 234.586 206.273 229.505C204.63 225.848 205.348 221.733 207.778 218.863C208.518 217.989 209.09 216.811 208.714 215.73C208.682 215.637 208.646 215.546 208.605 215.457L206.188 210.151C205.943 209.613 205.287 209.456 204.696 209.476C203.374 209.52 202.095 208.777 201.52 207.497C200.761 205.808 201.517 203.824 203.209 203.066Z" fill="#3E5FFF" /> <path d="M226.471 247.203C228.296 247.533 230.044 246.324 230.374 244.502C230.503 243.794 230.398 243.097 230.115 242.491C229.564 241.312 228.781 240.069 228.966 238.78C229.028 238.35 229.09 237.92 229.157 237.491C229.331 236.364 229.395 235.213 229.637 234.1L231.923 223.565C232.305 221.807 233.175 220.154 233.557 218.396C233.756 217.481 234.602 216.87 235.535 216.785C239.924 216.386 243.686 213.116 244.51 208.576C245.499 203.121 241.871 197.898 236.407 196.911C230.942 195.923 225.711 199.544 224.721 204.999C223.882 209.627 226.366 214.086 230.474 215.935C231.267 216.291 231.786 217.124 231.602 217.973C231.22 219.731 231.328 221.595 230.946 223.353L228.659 233.89C228.418 235.002 227.999 236.076 227.691 237.174C227.56 237.638 227.424 238.102 227.289 238.565C226.938 239.767 225.788 240.565 224.848 241.392C224.3 241.873 223.906 242.535 223.766 243.307C223.435 245.129 224.646 246.873 226.471 247.203Z" fill="#3E5FFF" /> <path d="M239.037 255.564C240.862 255.894 242.61 254.685 242.94 252.863C243.209 251.382 242.459 249.954 241.189 249.293C241.175 249.286 241.169 249.271 241.173 249.257C241.222 249.023 241.271 248.789 241.318 248.555C241.843 245.979 242.255 243.379 242.717 240.791C243.083 238.744 243.337 236.673 243.769 234.641L247.863 215.39C248.546 212.177 249.719 209.068 250.402 205.855L251.598 200.233C251.651 199.984 251.88 199.813 252.134 199.824C256.37 200.006 260.196 197.045 260.973 192.763C261.821 188.089 258.712 183.612 254.029 182.766C249.346 181.919 244.862 185.023 244.014 189.698C243.269 193.802 245.576 197.754 249.319 199.229C249.555 199.322 249.694 199.571 249.641 199.818L248.446 205.44C247.763 208.653 247.569 211.971 246.885 215.183L242.791 234.434C242.359 236.466 241.749 238.461 241.25 240.48C240.619 243.033 239.936 245.576 239.368 248.142C239.316 248.375 239.266 248.608 239.216 248.842C239.203 248.901 239.156 248.947 239.096 248.956C237.732 249.178 236.592 250.233 236.331 251.668C236.001 253.49 237.212 255.234 239.037 255.564Z" fill="#3E5FFF" /> <path d="M251.476 267.423C253.691 267.823 255.813 266.355 256.214 264.143C256.437 262.911 256.079 261.707 255.335 260.814C254.759 260.123 254.392 259.189 254.581 258.309C254.651 257.981 254.72 257.652 254.789 257.324C255.541 253.712 256.181 250.075 256.871 246.449C257.416 243.582 257.851 240.691 258.464 237.838L264.262 210.823C265.23 206.314 266.687 201.91 267.655 197.402L269.348 189.512C269.596 188.36 270.696 187.6 271.867 187.472C275.26 187.103 278.149 184.552 278.788 181.029C279.566 176.738 276.713 172.63 272.415 171.853C268.116 171.076 264 173.924 263.222 178.215C262.692 181.138 263.847 183.975 265.996 185.733C266.998 186.553 267.664 187.827 267.393 189.093L265.699 196.983C264.731 201.492 264.253 206.105 263.285 210.614L257.485 237.629C256.873 240.482 256.084 243.296 255.404 246.135C254.546 249.724 253.635 253.303 252.839 256.907C252.766 257.234 252.695 257.563 252.625 257.891C252.454 258.687 251.752 259.292 250.975 259.538C249.58 259.978 248.47 261.155 248.191 262.692C247.789 264.904 249.26 267.022 251.476 267.423Z" fill="#3E5FFF" /> <path d="M266.929 275.026C269.577 275.505 272.114 273.749 272.593 271.105C272.889 269.475 272.333 267.888 271.243 266.799C270.411 265.967 269.845 264.713 270.135 263.573C270.229 263.204 270.322 262.835 270.414 262.466C271.425 258.401 272.323 254.308 273.272 250.228C274.022 247.002 274.662 243.748 275.479 240.539L283.21 210.148C284.501 205.075 286.276 200.126 287.567 195.054L289.825 186.178C290.057 185.265 290.265 184.346 290.449 183.421C290.656 182.386 291.619 181.69 292.656 181.495C295.218 181.013 297.338 179.005 297.83 176.292C298.468 172.778 296.131 169.414 292.611 168.778C289.091 168.142 285.72 170.474 285.083 173.988C284.628 176.495 285.688 178.926 287.612 180.344C288.436 180.951 288.959 181.988 288.655 182.966C288.375 183.867 288.119 184.774 287.886 185.686L285.628 194.562C284.338 199.634 283.532 204.83 282.241 209.902L274.51 240.294C273.693 243.503 272.701 246.668 271.818 249.86C270.702 253.897 269.535 257.923 268.481 261.976C268.385 262.344 268.29 262.713 268.196 263.082C267.877 264.339 266.771 265.311 265.612 265.892C264.29 266.554 263.285 267.808 263.001 269.373C262.522 272.016 264.281 274.548 266.929 275.026Z" fill="#3E5FFF" /> <path d="M433.717 279.68C430.247 279.679 427.435 276.872 427.435 273.408C427.435 271.054 428.734 269.003 430.657 267.93C431.707 267.345 432.52 266.242 432.52 265.039C432.52 264.647 432.52 264.254 432.522 263.861C432.545 259.545 432.683 255.228 432.77 250.912C432.838 247.499 433.02 244.086 433.02 240.673L433.02 208.353C433.02 202.958 432.52 197.564 432.52 192.17V182.73C432.52 181.76 432.545 180.789 432.594 179.818C432.601 179.676 432.609 179.534 432.617 179.393C432.712 177.77 431.501 176.361 430.161 175.441C428.514 174.311 427.435 172.417 427.435 170.271C427.435 166.807 430.247 163.999 433.717 163.999C437.187 163.999 440 166.807 440 170.271C440 172.491 438.844 174.442 437.1 175.556C435.669 176.47 434.343 177.924 434.435 179.619C434.438 179.685 434.442 179.752 434.445 179.818C434.494 180.789 434.52 181.76 434.52 182.73V192.17C434.519 197.564 434.02 202.958 434.02 208.353L434.02 240.673C434.02 244.086 434.201 247.499 434.27 250.912C434.356 255.228 434.494 259.545 434.517 263.861C434.519 264.254 434.52 264.647 434.52 265.039C434.519 266.193 435.341 267.24 436.386 267.729C438.521 268.731 440 270.897 440 273.408C440 276.872 437.187 279.68 433.717 279.68Z" fill="#3E5FFF" /> <path d="M414.171 274.105C411.472 274.105 409.284 271.922 409.284 269.228C409.284 267.168 410.562 265.408 412.37 264.693C412.717 264.555 412.974 264.236 412.976 263.862C412.998 259.546 413.136 255.229 413.223 250.913C413.291 247.5 413.473 244.087 413.473 240.674L413.473 208.354C413.473 202.959 412.973 197.565 412.973 192.171L412.973 182.731C412.973 182.327 412.679 181.985 412.287 181.886C408.956 181.048 406.491 178.038 406.491 174.453C406.491 170.22 409.93 166.787 414.171 166.787C418.412 166.787 421.85 170.22 421.85 174.453C421.85 178.194 419.166 181.309 415.615 181.984C415.252 182.053 414.973 182.361 414.973 182.731V192.171C414.973 197.565 414.473 202.959 414.473 208.354L414.473 240.674C414.473 244.087 414.654 247.5 414.723 250.913C414.809 255.229 414.947 259.546 414.97 263.862C414.971 264.182 415.205 264.451 415.513 264.538C417.559 265.12 419.058 266.998 419.058 269.228C419.058 271.922 416.87 274.105 414.171 274.105Z" fill="#3E5FFF" /> <path d="M399.238 266.97C396.54 267.063 394.279 264.955 394.186 262.262C394.138 260.854 394.692 259.565 395.619 258.642C396.548 257.717 397.445 256.592 397.422 255.281C397.374 252.557 397.371 249.832 397.338 247.108C397.304 244.304 397.383 241.496 397.281 238.695L396.315 212.163C396.154 207.735 395.493 203.325 395.332 198.897L395.274 197.299C395.216 195.703 393.877 194.487 392.385 193.917C389.416 192.782 387.262 189.959 387.146 186.588C386.992 182.094 390.516 178.326 395.018 178.171C399.52 178.017 403.295 181.535 403.45 186.029C403.556 189.111 401.932 191.852 399.448 193.32C398.212 194.05 397.201 195.271 397.253 196.706L397.33 198.825C397.492 203.253 397.153 207.699 397.314 212.127L398.281 238.658C398.383 241.46 398.666 244.255 398.837 247.054C398.989 249.563 399.168 252.072 399.313 254.582C399.401 256.095 400.682 257.248 401.915 258.13C403.105 258.981 403.9 260.354 403.954 261.928C404.046 264.62 401.935 266.878 399.238 266.97Z" fill="#3E5FFF" /> <path d="M385.687 255.644C383.546 255.865 381.63 254.313 381.407 252.176C381.324 251.375 381.49 250.607 381.843 249.946C382.358 248.983 382.913 247.95 382.789 246.865C382.632 245.483 382.485 244.099 382.324 242.718C382.086 240.67 381.959 238.605 381.653 236.568L378.754 217.272C378.546 215.89 378.248 214.522 377.937 213.156C377.619 211.758 376.335 210.825 374.947 210.465C371.424 209.552 368.669 206.54 368.271 202.713C367.758 197.788 371.343 193.38 376.277 192.868C381.211 192.356 385.626 195.935 386.139 200.86C386.522 204.537 384.621 207.924 381.581 209.618C380.267 210.35 379.216 211.663 379.33 213.162C379.43 214.488 379.546 215.812 379.743 217.124L382.642 236.42C382.948 238.457 383.434 240.468 383.808 242.496C384.137 244.283 384.49 246.066 384.813 247.853C384.819 247.886 384.849 247.906 384.882 247.903C387.023 247.681 388.939 249.233 389.161 251.371C389.384 253.508 387.828 255.421 385.687 255.644Z" fill="#3E5FFF" /> <path d="M374.791 246.934C373.099 247.692 371.111 246.937 370.352 245.248C369.888 244.217 369.99 243.077 370.524 242.173C370.871 241.585 371.183 240.885 370.9 240.263L368.485 234.957C368.348 234.657 368.159 234.38 367.953 234.111C367.651 233.716 367.099 233.619 366.645 233.823C361.555 236.102 355.577 233.832 353.294 228.751C351.01 223.67 353.285 217.702 358.375 215.423C363.465 213.143 369.443 215.414 371.727 220.495C373.37 224.152 372.652 228.268 370.222 231.138C369.483 232.012 368.911 233.189 369.286 234.271C369.319 234.363 369.354 234.454 369.395 234.543L371.811 239.85C372.056 240.387 372.713 240.544 373.304 240.525C374.626 240.481 375.905 241.224 376.48 242.503C377.239 244.192 376.483 246.176 374.791 246.934Z" fill="#3E5FFF" /> <path d="M351.529 202.797C349.704 202.467 347.956 203.676 347.626 205.498C347.497 206.206 347.602 206.903 347.885 207.509C348.436 208.688 349.219 209.931 349.034 211.22C348.972 211.65 348.91 212.08 348.843 212.509C348.669 213.636 348.605 214.787 348.363 215.9L346.077 226.435C345.695 228.193 344.825 229.847 344.443 231.605C344.244 232.52 343.398 233.131 342.465 233.216C338.076 233.615 334.313 236.885 333.49 241.425C332.501 246.88 336.129 252.103 341.593 253.09C347.057 254.078 352.289 250.456 353.279 245.001C354.118 240.373 351.634 235.914 347.526 234.065C346.733 233.709 346.214 232.876 346.398 232.027C346.78 230.269 346.672 228.405 347.054 226.647L349.34 216.111C349.582 214.999 350.001 213.924 350.309 212.826C350.44 212.361 350.576 211.898 350.711 211.434C351.063 210.233 352.213 209.435 353.153 208.608C353.7 208.127 354.094 207.465 354.234 206.693C354.565 204.871 353.354 203.127 351.529 202.797Z" fill="#3E5FFF" /> <path d="M338.963 194.436C337.138 194.106 335.39 195.315 335.06 197.137C334.791 198.618 335.541 200.046 336.811 200.707C336.825 200.714 336.831 200.729 336.827 200.743C336.778 200.977 336.729 201.211 336.682 201.445C336.157 204.021 335.745 206.621 335.283 209.21C334.917 211.257 334.663 213.327 334.231 215.359L330.137 234.61C329.454 237.823 328.281 240.932 327.598 244.145L326.402 249.767C326.349 250.016 326.12 250.187 325.866 250.176C321.63 249.994 317.803 252.956 317.027 257.238C316.179 261.912 319.288 266.388 323.971 267.234C328.654 268.081 333.138 264.977 333.986 260.302C334.731 256.198 332.424 252.248 328.681 250.772C328.445 250.679 328.306 250.43 328.359 250.182L329.554 244.56C330.237 241.347 330.431 238.029 331.115 234.817L335.208 215.567C335.641 213.534 336.251 211.539 336.75 209.52C337.381 206.968 338.064 204.425 338.632 201.859C338.684 201.626 338.734 201.392 338.784 201.158C338.797 201.099 338.844 201.053 338.904 201.044C340.268 200.822 341.408 199.768 341.669 198.332C341.999 196.51 340.788 194.766 338.963 194.436Z" fill="#3E5FFF" /> <path d="M326.524 182.577C324.309 182.177 322.188 183.645 321.786 185.857C321.563 187.089 321.921 188.293 322.665 189.186C323.241 189.877 323.608 190.811 323.419 191.691C323.349 192.019 323.28 192.348 323.211 192.676C322.459 196.288 321.819 199.925 321.129 203.551C320.584 206.418 320.149 209.309 319.536 212.162L313.738 239.177C312.77 243.686 311.313 248.091 310.345 252.599L308.652 260.488C308.404 261.64 307.304 262.4 306.133 262.528C302.74 262.897 299.851 265.448 299.212 268.971C298.434 273.262 301.287 277.37 305.585 278.147C309.884 278.924 314 276.076 314.778 271.785C315.308 268.862 314.153 266.025 312.004 264.267C311.002 263.447 310.336 262.173 310.607 260.907L312.301 253.017C313.269 248.508 313.747 243.895 314.715 239.386L320.515 212.371C321.127 209.518 321.916 206.704 322.596 203.865C323.454 200.276 324.365 196.697 325.161 193.093C325.234 192.766 325.305 192.438 325.375 192.11C325.546 191.313 326.249 190.708 327.026 190.462C328.421 190.022 329.531 188.845 329.809 187.308C330.211 185.096 328.74 182.978 326.524 182.577Z" fill="#3E5FFF" /> <path d="M311.071 174.974C308.423 174.495 305.886 176.251 305.407 178.895C305.111 180.525 305.667 182.112 306.757 183.201C307.589 184.033 308.155 185.287 307.865 186.427C307.771 186.796 307.678 187.165 307.586 187.534C306.575 191.599 305.677 195.692 304.728 199.772C303.978 202.998 303.338 206.252 302.521 209.461L294.789 239.852C293.498 244.924 291.723 249.875 290.433 254.947L288.175 263.823C287.943 264.736 287.735 265.655 287.551 266.58C287.344 267.615 286.382 268.31 285.345 268.505C282.783 268.986 280.662 270.995 280.17 273.708C279.532 277.222 281.869 280.587 285.389 281.223C288.909 281.859 292.28 279.526 292.917 276.012C293.372 273.504 292.311 271.073 290.387 269.655C289.563 269.048 289.041 268.012 289.345 267.035C289.625 266.134 289.881 265.227 290.114 264.314L292.372 255.438C293.662 250.366 294.468 245.17 295.759 240.098L303.49 209.707C304.307 206.498 305.299 203.333 306.182 200.14C307.298 196.103 308.465 192.077 309.519 188.024C309.615 187.656 309.71 187.287 309.804 186.918C310.123 185.662 311.229 184.69 312.387 184.11C313.71 183.447 314.715 182.194 314.999 180.628C315.478 177.984 313.72 175.452 311.071 174.974Z" fill="#3E5FFF" /> </g> </g> </g> <rect x="3.5" y="2.5" width="571" height="490" rx="14.5" stroke="black" stroke-width="5" /> </g> <defs> <filter id="filter0_di_674_36891" x="0" y="0" width="578" height="497" filterUnits="userSpaceOnUse" color-interpolation-filters="sRGB"> <feFlood flood-opacity="0" result="BackgroundImageFix" /> <feColorMatrix in="SourceAlpha" type="matrix" values="0 0 0 0 0 0 0 0 0 0 0 0 0 0 0 0 0 0 127 0" result="hardAlpha" /> <feOffset dy="1" /> <feGaussianBlur stdDeviation="0.5" /> <feComposite in2="hardAlpha" operator="out" /> <feColorMatrix type="matrix" values="0 0 0 0 1 0 0 0 0 1 0 0 0 0 1 0 0 0 0.25 0" /> <feBlend mode="normal" in2="BackgroundImageFix" result="effect1_dropShadow_674_36891" /> <feBlend mode="normal" in="SourceGraphic" in2="effect1_dropShadow_674_36891" result="shape" /> <feColorMatrix in="SourceAlpha" type="matrix" values="0 0 0 0 0 0 0 0 0 0 0 0 0 0 0 0 0 0 127 0" result="hardAlpha" /> <feOffset dy="5" /> <feGaussianBlur stdDeviation="1" /> <feComposite in2="hardAlpha" operator="arithmetic" k2="-1" k3="1" /> <feColorMatrix type="matrix" values="0 0 0 0 0.0861539 0 0 0 0 0.0830769 0 0 0 0 0.116923 0 0 0 1 0" /> <feBlend mode="normal" in2="shape" result="effect2_innerShadow_674_36891" /> </filter> <filter id="filter1_d_674_36891" x="-8.7" y="3.3" width="62.4" height="514.4" filterUnits="userSpaceOnUse" color-interpolation-filters="sRGB"> <feFlood flood-opacity="0" result="BackgroundImageFix" /> <feColorMatrix in="SourceAlpha" type="matrix" values="0 0 0 0 0 0 0 0 0 0 0 0 0 0 0 0 0 0 127 0" result="hardAlpha" /> <feOffset dy="13" /> <feGaussianBlur stdDeviation="10.35" /> <feComposite in2="hardAlpha" operator="out" /> <feColorMatrix type="matrix" values="0 0 0 0 0.243137 0 0 0 0 0.372549 0 0 0 0 1 0 0 0 1 0" /> <feBlend mode="normal" in2="BackgroundImageFix" result="effect1_dropShadow_674_36891" /> <feBlend mode="normal" in="SourceGraphic" in2="effect1_dropShadow_674_36891" result="shape" /> </filter> <filter id="filter2_d_674_36891" x="524.3" y="3.3" width="62.4" height="514.4" filterUnits="userSpaceOnUse" color-interpolation-filters="sRGB"> <feFlood flood-opacity="0" result="BackgroundImageFix" /> <feColorMatrix in="SourceAlpha" type="matrix" values="0 0 0 0 0 0 0 0 0 0 0 0 0 0 0 0 0 0 127 0" result="hardAlpha" /> <feOffset dy="13" /> <feGaussianBlur stdDeviation="10.35" /> <feComposite in2="hardAlpha" operator="out" /> <feColorMatrix type="matrix" values="0 0 0 0 0.243137 0 0 0 0 0.372549 0 0 0 0 1 0 0 0 1 0" /> <feBlend mode="normal" in2="BackgroundImageFix" result="effect1_dropShadow_674_36891" /> <feBlend mode="normal" in="SourceGraphic" in2="effect1_dropShadow_674_36891" result="shape" /> </filter> <pattern id="pattern0_674_36891" patternUnits="userSpaceOnUse" width="8.28" height="8.28"><circle cx="4.14" cy="4.14" r="2.3" fill="white" /></pattern> <filter id="filter3_f_674_36891" x="-16" y="10" width="610" height="430" filterUnits="userSpaceOnUse" color-interpolation-filters="sRGB"> <feFlood flood-opacity="0" result="BackgroundImageFix" /> <feBlend mode="normal" in="SourceGraphic" in2="BackgroundImageFix" result="shape" /> <feGaussianBlur stdDeviation="77" result="effect1_foregroundBlur_674_36891" /> </filter> <clipPath id="clip0_674_36891"> <rect x="1" width="576" height="495" rx="17" fill="white" /> </clipPath> </defs> </svg>